<svg width="91" height="90" viewBox="0 0 91 90" fill="none" xmlns="http://www.w3.org/2000/svg">
<rect x="0.5" width="90" height="90" rx="45" fill="#C5F277"/>
<path d="M57.1666 31.0625L45.3958 24.7291C44.1458 24.0625 42.6666 24.0625 41.4166 24.7291L29.6666 31.0625C28.8124 31.5416 28.2708 32.4583 28.2708 33.4583C28.2708 34.4791 28.7916 35.3958 29.6666 35.8541L41.4374 42.1875C42.0624 42.5208 42.7499 42.6875 43.4166 42.6875C44.0833 42.6875 44.7916 42.5208 45.3958 42.1875L57.1666 35.8541C58.0208 35.3958 58.5624 34.4791 58.5624 33.4583C58.5624 32.4583 58.0208 31.5416 57.1666 31.0625Z" fill="#090917"/>
<path d="M39.5 44.3958L28.5625 38.9374C27.7083 38.4999 26.75 38.5624 25.9375 39.0416C25.1458 39.5416 24.6666 40.3958 24.6666 41.3333V51.6666C24.6666 53.4583 25.6666 55.0624 27.2708 55.8749L38.2083 61.3333C38.5833 61.5208 39 61.6249 39.4166 61.6249C39.8958 61.6249 40.3958 61.4791 40.8333 61.2291C41.625 60.7291 42.1041 59.8749 42.1041 58.9374V48.6041C42.0833 46.8124 41.0833 45.2083 39.5 44.3958Z" fill="#090917"/>
<path d="M62.1667 41.3333V46.4583C61.1667 46.1666 60.1042 46.0416 59.0417 46.0416C56.2083 46.0416 53.4375 47.0208 51.25 48.7708C48.25 51.1249 46.5417 54.6874 46.5417 58.5416C46.5417 59.5624 46.6667 60.5833 46.9375 61.5624C46.625 61.5208 46.3125 61.3958 46.0208 61.2083C45.2292 60.7291 44.75 59.8749 44.75 58.9374V48.6041C44.75 46.8124 45.75 45.2083 47.3333 44.3958L58.2708 38.9374C59.125 38.4999 60.0833 38.5624 60.8958 39.0416C61.6875 39.5416 62.1667 40.3958 62.1667 41.3333Z" fill="#090917"/>
<path d="M67.5416 64.7917L65.7916 63.0417C66.7083 61.6667 67.25 60 67.25 58.2292C67.25 53.375 63.3125 49.4375 58.4583 49.4375C53.6041 49.4375 49.6666 53.375 49.6666 58.2292C49.6666 63.0833 53.6041 67.0208 58.4583 67.0208C60.2291 67.0208 61.8958 66.4792 63.2708 65.5625L65.0208 67.3125C65.375 67.6667 65.8125 67.8333 66.2708 67.8333C66.7291 67.8333 67.1875 67.6667 67.5208 67.3125C68.2291 66.6042 68.2291 65.4792 67.5416 64.7917Z" fill="#090917"/>
</svg>
