<svg width="40" height="40" viewBox="0 0 40 40" fill="none" xmlns="http://www.w3.org/2000/svg">
<rect width="40" height="40" rx="20" fill="white"/>
<path d="M20.0166 12.425C17.2583 12.425 15.0166 14.6667 15.0166 17.425V19.8333C15.0166 20.3417 14.8 21.1167 14.5416 21.55L13.5833 23.1417C12.9916 24.125 13.4 25.2167 14.4833 25.5833C18.075 26.7833 21.95 26.7833 25.5416 25.5833C26.55 25.25 26.9916 24.0583 26.4416 23.1417L25.4833 21.55C25.2333 21.1167 25.0166 20.3417 25.0166 19.8333V17.425C25.0166 14.675 22.7666 12.425 20.0166 12.425Z" stroke="#090917" stroke-width="2" stroke-miterlimit="10" stroke-linecap="round"/>
<path d="M21.5583 12.6666C21.3 12.5916 21.0333 12.5333 20.7583 12.5C19.9583 12.4 19.1916 12.4583 18.475 12.6666C18.7166 12.05 19.3166 11.6166 20.0166 11.6166C20.7166 11.6166 21.3166 12.05 21.5583 12.6666Z" stroke="#090917" stroke-width="2" stroke-miterlimit="10" stroke-linecap="round" stroke-linejoin="round"/>
<path d="M22.5167 25.8834C22.5167 27.2584 21.3917 28.3834 20.0167 28.3834C19.3334 28.3834 18.7001 28.1 18.2501 27.65C17.8001 27.2 17.5167 26.5667 17.5167 25.8834" stroke="#090917" stroke-width="2" stroke-miterlimit="10"/>
</svg>
