<svg width="24" height="24" viewBox="0 0 24 24" fill="none" xmlns="http://www.w3.org/2000/svg">
<path d="M11.74 17.75H17.66C17.57 17.83 17.48 17.9 17.39 17.98L13.12 21.18C11.71 22.23 9.41001 22.23 7.99001 21.18L3.71001 17.98C2.77001 17.28 2 15.73 2 14.56V7.14998C2 5.92998 2.93001 4.57998 4.07001 4.14998L9.05 2.27999C9.87 1.96999 11.23 1.96999 12.05 2.27999L17.02 4.14998C17.97 4.50998 18.78 5.50999 19.03 6.52999H11.73C11.51 6.52999 11.31 6.54 11.12 6.54C9.27 6.65 8.78999 7.31998 8.78999 9.42998V14.86C8.79999 17.16 9.39001 17.75 11.74 17.75Z" stroke="#090917" stroke-width="2" stroke-linecap="round" stroke-linejoin="round"/>
<path d="M8.80005 11.22H22" stroke="#090917" stroke-width="2" stroke-miterlimit="10" stroke-linecap="round" stroke-linejoin="round"/>
<path d="M22 9.42001V14.97C21.98 17.19 21.37 17.74 19.06 17.74H11.7401C9.39005 17.74 8.80005 17.15 8.80005 14.84V9.41C8.80005 7.31 9.28005 6.63999 11.1301 6.51999C11.3201 6.51999 11.5201 6.51001 11.7401 6.51001H19.06C21.41 6.52001 22 7.10001 22 9.42001Z" stroke="#090917" stroke-width="2" stroke-linecap="round" stroke-linejoin="round"/>
<path d="M11.3201 15.26H12.6501" stroke="#090917" stroke-width="2" stroke-miterlimit="10" stroke-linecap="round" stroke-linejoin="round"/>
<path d="M14.75 15.26H18.02" stroke="#090917" stroke-width="2" stroke-miterlimit="10" stroke-linecap="round" stroke-linejoin="round"/>
</svg>
