<svg width="32" height="32" viewBox="0 0 32 32" fill="none" xmlns="http://www.w3.org/2000/svg">
<path d="M24.7201 5.49333L17.3867 2.74667C16.6267 2.46667 15.3867 2.46667 14.6267 2.74667L7.2934 5.49333C5.88006 6.02667 4.7334 7.68 4.7334 9.18667V19.9867C4.7334 21.0667 5.44007 22.4933 6.30673 23.1333L13.6401 28.6133C14.9334 29.5867 17.0534 29.5867 18.3467 28.6133L25.6801 23.1333C26.5467 22.48 27.2534 21.0667 27.2534 19.9867V9.18667C27.2667 7.68 26.1201 6.02667 24.7201 5.49333ZM20.6401 12.96L14.9067 18.6933C14.7067 18.8933 14.4534 18.9867 14.2001 18.9867C13.9467 18.9867 13.6934 18.8933 13.4934 18.6933L11.3601 16.5333C10.9734 16.1467 10.9734 15.5067 11.3601 15.12C11.7467 14.7333 12.3867 14.7333 12.7734 15.12L14.2134 16.56L19.2401 11.5333C19.6267 11.1467 20.2667 11.1467 20.6534 11.5333C21.0401 11.92 21.0401 12.5733 20.6401 12.96Z" fill="#07B704"/>
</svg>
