<svg width="25" height="24" viewBox="0 0 25 24" fill="none" xmlns="http://www.w3.org/2000/svg">
<path d="M15.7235 5.21L17.1334 8.02999C17.3234 8.41999 17.8334 8.78999 18.2634 8.86999L20.8135 9.28999C22.4435 9.55999 22.8235 10.74 21.6535 11.92L19.6634 13.91C19.3334 14.24 19.1435 14.89 19.2535 15.36L19.8234 17.82C20.2734 19.76 19.2334 20.52 17.5234 19.5L15.1334 18.08C14.7034 17.82 13.9834 17.82 13.5534 18.08L11.1634 19.5C9.45343 20.51 8.41345 19.76 8.86345 17.82L9.43345 15.36C9.54345 14.9 9.35345 14.25 9.02345 13.91L7.03346 11.92C5.86346 10.75 6.24346 9.56999 7.87346 9.28999L10.4234 8.86999C10.8534 8.79999 11.3634 8.41999 11.5534 8.02999L12.9635 5.21C13.7135 3.68 14.9535 3.68 15.7235 5.21Z" stroke="white" stroke-width="2" stroke-linecap="round" stroke-linejoin="round"/>
<path d="M8.33337 5H2.33337" stroke="white" stroke-width="2" stroke-linecap="round" stroke-linejoin="round"/>
<path d="M5.33337 19H2.33337" stroke="white" stroke-width="2" stroke-linecap="round" stroke-linejoin="round"/>
<path d="M3.33337 12H2.33337" stroke="white" stroke-width="2" stroke-linecap="round" stroke-linejoin="round"/>
</svg>
