<svg width="18" height="18" viewBox="0 0 18 18" fill="none" xmlns="http://www.w3.org/2000/svg">
<path d="M16.1699 8.05498L15.1499 6.86998C14.9549 6.64498 14.7974 6.22498 14.7974 5.92498V4.64998C14.7974 3.85498 14.1449 3.20248 13.3499 3.20248H12.0749C11.7824 3.20248 11.3549 3.04498 11.1299 2.84998L9.94491 1.82998C9.42741 1.38748 8.57991 1.38748 8.05491 1.82998L6.87741 2.85748C6.65241 3.04498 6.22491 3.20248 5.93241 3.20248H4.63491C3.83991 3.20248 3.18741 3.85498 3.18741 4.64998V5.93248C3.18741 6.22498 3.02991 6.64498 2.84241 6.86998L1.82991 8.06248C1.39491 8.57998 1.39491 9.41998 1.82991 9.93748L2.84241 11.13C3.02991 11.355 3.18741 11.775 3.18741 12.0675V13.35C3.18741 14.145 3.83991 14.7975 4.63491 14.7975H5.93241C6.22491 14.7975 6.65241 14.955 6.87741 15.15L8.06241 16.17C8.57991 16.6125 9.42741 16.6125 9.95241 16.17L11.1374 15.15C11.3624 14.955 11.7824 14.7975 12.0824 14.7975H13.3574C14.1524 14.7975 14.8049 14.145 14.8049 13.35V12.075C14.8049 11.7825 14.9624 11.355 15.1574 11.13L16.1774 9.94498C16.6124 9.42748 16.6124 8.57248 16.1699 8.05498ZM12.1199 7.58248L8.49741 11.205C8.39241 11.31 8.24991 11.37 8.09991 11.37C7.94991 11.37 7.80741 11.31 7.70241 11.205L5.88741 9.38998C5.66991 9.17248 5.66991 8.81248 5.88741 8.59498C6.10491 8.37748 6.46491 8.37748 6.68241 8.59498L8.09991 10.0125L11.3249 6.78748C11.5424 6.56998 11.9024 6.56998 12.1199 6.78748C12.3374 7.00498 12.3374 7.36498 12.1199 7.58248Z" fill="#07B704"/>
</svg>
