<svg width="70" height="21" viewBox="0 0 70 21" fill="none" xmlns="http://www.w3.org/2000/svg">
<g clip-path="url(#clip0_31_698)">
<path d="M0.0821435 14.0075C0.0821435 12.995 0.0644511 12.1474 0.00976562 11.3891H1.92456L2.01544 12.6902H2.06851C2.50197 12.0035 3.29652 11.1896 4.77785 11.1896C5.93429 11.1896 6.8366 11.841 7.21618 12.8157H7.25317C7.56038 12.3284 7.92066 11.9665 8.33563 11.7148C8.82377 11.3706 9.3851 11.1896 10.1065 11.1896C11.5701 11.1896 13.0498 12.1828 13.0498 15.0023V20.1846H10.8825V15.3256C10.8825 13.8636 10.3767 12.995 9.31112 12.995C8.55276 12.995 7.99223 13.5387 7.75821 14.1708C7.69309 14.412 7.65665 14.6601 7.64964 14.9098V20.1854H5.48233V15.09C5.48233 13.8644 4.99499 12.9958 3.96481 12.9958C3.13568 12.9958 2.57596 13.6472 2.37491 14.26C2.28565 14.4772 2.24865 14.7313 2.24865 14.9822V20.1854H0.0821435V14.0075ZM21.4947 18.0727C21.4947 18.8665 21.5309 19.6425 21.6202 20.1854H19.6153L19.4714 19.2107H19.4167C18.8746 19.8975 17.953 20.3832 16.8175 20.3832C15.0467 20.3832 14.0535 19.1021 14.0535 17.7647C14.0535 15.5411 16.0205 14.4233 19.2735 14.441V14.297C19.2735 13.718 19.0379 12.761 17.4842 12.761C16.6164 12.761 15.7141 13.0328 15.1182 13.4108L14.6848 11.9657C15.3354 11.5676 16.4733 11.1888 17.863 11.1888C20.6817 11.1888 21.4955 12.979 21.4955 14.8913L21.4947 18.0727ZM19.3266 15.8877C17.7544 15.8507 16.2562 16.1941 16.2562 17.5307C16.2562 18.3976 16.8175 18.7957 17.5212 18.7957C18.405 18.7957 19.0564 18.2159 19.255 17.5846C19.3037 17.4267 19.3281 17.2624 19.3274 17.0972L19.3266 15.8877ZM23.0291 14.0075C23.0291 12.995 23.0106 12.1474 22.9584 11.3891H24.9069L25.0147 12.7095H25.0694C25.4481 12.022 26.4059 11.1896 27.8688 11.1896C29.4048 11.1896 30.9931 12.1828 30.9931 14.9661V20.1846H28.7719V15.2186C28.7719 13.9544 28.3014 12.9942 27.0919 12.9942C26.2081 12.9942 25.5921 13.6271 25.3581 14.2962C25.2857 14.4941 25.268 14.7659 25.268 15.0168V20.1838H23.0283L23.0291 14.0075ZM40.6258 7.85541V17.7108C40.6258 18.614 40.6628 19.5911 40.6982 20.1854H38.7126L38.6217 18.7957H38.5847C38.062 19.7704 36.9948 20.384 35.7137 20.384C33.618 20.384 31.9573 18.5963 31.9573 15.8885C31.938 12.9436 33.7796 11.1904 35.8947 11.1904C37.1042 11.1904 37.9711 11.6963 38.3684 12.3493H38.4062V7.85621H40.6266L40.6258 7.85541ZM38.4054 15.0554C38.4054 14.8761 38.3877 14.6589 38.3507 14.4772C38.1521 13.6119 37.4492 12.9066 36.4367 12.9066C35.0101 12.9066 34.2139 14.1716 34.2139 15.8146C34.2139 17.4205 35.0093 18.5955 36.419 18.5955C37.3205 18.5955 38.1159 17.9803 38.3322 17.0233C38.3869 16.8254 38.4062 16.6075 38.4062 16.3735L38.4054 15.0554ZM42.1972 20.1854V11.3891H44.4385V20.1854H42.1972ZM46.0083 14.2255C46.0083 13.0336 45.9914 12.1836 45.9375 11.3899H47.87L47.9408 13.0682H48.0139C48.4474 11.8225 49.476 11.3899 50.4177 11.3899C50.634 11.3899 50.7595 11.3529 50.9396 11.3899V13.3416C50.7265 13.2945 50.5089 13.2702 50.2906 13.2693C49.2226 13.2693 48.5005 13.9561 48.3026 14.9476C48.2589 15.1746 48.235 15.4049 48.2311 15.636V20.1862H46.0083V14.2255ZM51.9706 20.1854V11.3891H54.2087V20.1854H51.9706Z" fill="#0D2B5B"/>
<path d="M68.1503 2.08607C67.0413 0.821063 65.8623 1.39365 64.9254 1.85928C64.5314 2.0539 61.6869 3.66631 61.6869 3.66631C60.1284 4.30887 58.9148 3.60761 58.4388 3.01733C58.3932 2.96135 58.3521 2.90193 58.3157 2.8396L58.2047 2.6474C58.0172 2.32298 57.8087 2.0111 57.5807 1.71372C57.4423 1.53347 57.2924 1.36236 57.1319 1.20145C56.0656 0.124628 54.3615 -0.628905 51.513 0.739839C50.1644 1.52152 45.771 4.03142 45.771 4.03142C44.12 4.71097 42.8574 3.88345 42.4473 3.27628C42.4288 3.25355 42.4127 3.22903 42.399 3.2031L42.3452 3.11142L42.0669 2.65624C41.9413 2.45685 41.8066 2.26337 41.6632 2.07642C41.5234 1.89731 41.3733 1.72653 41.2137 1.56495C40.1545 0.494559 38.4593 -0.257366 35.6357 1.08564C33.9284 2.06033 29.9573 4.33058 29.9573 4.33058L29.9557 4.33219L27.0493 5.99286L28.5532 7.8393C29.1861 8.44245 30.3755 9.43161 32.2155 8.59766C32.2155 8.59766 37.294 5.6567 37.3141 5.64786C41.656 3.26502 43.7983 5.5417 44.7457 7.05922C44.7787 7.10667 44.8052 7.15814 44.835 7.20398L44.8366 7.20639C44.8486 7.22489 44.8559 7.24178 44.8663 7.25947L44.9733 7.43479C45.4349 8.13444 46.1627 8.5864 47.0304 8.56549C47.5089 8.55584 47.8338 8.39982 48.3067 8.13685L53.2203 5.28677L53.2308 5.28195C57.6273 2.87016 59.8059 5.29562 60.7364 6.81314C60.8087 6.94422 60.8908 7.06968 60.9752 7.18629C61.436 7.81115 62.0713 8.22049 62.8787 8.20038C63.4119 8.18993 64.0094 7.86986 64.0987 7.81115L69.9895 4.411C69.9911 4.41261 69.3895 3.50306 68.1503 2.08607Z" fill="#FDD213"/>
</g>
<defs>
<clipPath id="clip0_31_698">
<rect width="70" height="20.384" fill="white"/>
</clipPath>
</defs>
</svg>
