<svg width="70" height="22" viewBox="0 0 70 22" fill="none" xmlns="http://www.w3.org/2000/svg">
<g clip-path="url(#clip0_31_684)">
<path d="M37.957 10.4494C42.3786 8.44393 43.0325 1.89941 36.7432 1.89941H29.4597L26.768 7.17725H28.0347L24.8152 19.7912H33.2597C39.4204 19.8439 42.1911 12.5895 37.957 10.4494ZM33.2597 15.1996H31.1486L31.9402 12.3496H33.9457C36.3208 12.8245 34.8431 15.305 33.2597 15.1996ZM34.5264 9.12993H32.732L33.2597 6.64939H35.2652C37.2031 7.12443 35.5293 9.23556 34.5264 9.12993Z" fill="#005FAF" stroke="#005FAF" stroke-width="0.151336"/>
<path d="M55.247 8.63994L58.012 3.75875L54.2706 1.80713L53.7825 2.40945C51.7641 1.34102 41.195 2.81624 40.5332 13.2422C40.9288 21.9883 50.7291 20.4151 51.6904 19.8601L54.3859 14.2881C51.746 16.0269 46.3406 16.8617 46.1119 11.6384C46.586 7.33103 51.6715 5.72249 55.247 8.63994ZM69.0449 1.89944H60.5445L57.8425 7.01928H59.2306L52.8245 19.7913H59.0252L60.2983 16.7107H64.1045L64.1994 19.7913H69.9073L69.0449 1.89944ZM62.0227 12.563L64.1043 7.59421L64.1992 12.563H62.0227Z" fill="#005FAF" stroke="#005FAF" stroke-width="0.151336"/>
<path d="M15.9616 18.9371L16.2918 18.8413L15.9297 18.3408L15.9616 18.9371ZM10.5404 18.8519L10.4766 19.2992C10.6409 19.2832 10.8433 19.4248 10.9239 19.1075C10.9179 18.8602 10.7296 18.8466 10.5404 18.8519ZM13.1713 18.8413C13.1439 18.7195 13.0422 18.6297 12.7878 18.7136L12.873 19.1714C13.082 19.125 13.1894 19.0014 13.1713 18.8413ZM7.22816 18.4666L7.12646 18.8734C7.28991 18.8802 7.48135 19.0128 7.58985 18.7717C7.59712 18.6206 7.60332 18.4702 7.22816 18.4666ZM12.9476 19.5123L13.0222 19.981C13.1967 19.9854 13.3559 19.8805 13.3097 19.6615C13.2652 19.4509 13.0883 19.4842 12.9476 19.5123Z" fill="#005FAF"/>
<path d="M19.8738 2.14063C14.234 -0.732483 7.49849 -0.652577 2.12486 2.01532C-0.646096 6.89332 -0.734325 13.7184 2.12486 19.7634C8.04496 22.7592 14.5927 22.5619 19.9154 19.8887C22.417 14.7564 22.8302 8.58072 19.8738 2.14063ZM10.3487 16.7064L10.0144 16.7102C9.93167 15.7864 9.71087 15.0101 9.23719 14.4159C7.06506 11.692 2.62487 13.7428 3.76579 9.11357C4.35903 6.74698 11.1257 5.35121 10.3487 16.7064ZM3.77381 12.1342C4.2481 13.0996 7.21958 13.2577 8.25108 13.9967C9.88732 15.1688 9.65245 16.7106 9.65245 16.7106H9.26654C8.50684 14.382 6.37467 16.2257 4.66685 15.5986C3.59463 15.2172 2.81616 13.5642 3.77381 12.1342ZM9.1877 19.7254L9.34751 18.4579L9.63505 18.4793L9.50717 19.8744C9.37823 20.489 8.46189 20.4068 8.34627 19.8212L8.49534 18.3727L8.83615 18.4262L8.68708 19.6402C8.706 20.042 9.109 20.0179 9.1877 19.7254ZM7.65754 20.0715L7.32975 19.9923C7.36819 19.7214 7.68948 19.1703 7.05447 19.1703L6.87771 19.8906L6.51602 19.8228L6.90026 18.0935C7.83945 18.1958 7.92162 18.4572 7.94024 18.7378C7.90316 18.9554 7.8452 19.1073 7.65769 19.1446C7.87713 19.3437 7.66027 19.7611 7.65754 20.0715ZM5.57562 18.1345C5.48527 18.2544 5.30442 18.6731 5.27824 19.0068C5.2504 19.3605 5.59015 19.2861 5.67474 19.2447C5.743 19.2116 5.79369 18.9275 5.79369 18.9275L5.55579 18.8482L5.63509 18.6105L6.17052 18.7889L5.91279 19.6812L5.69472 19.6216L5.71454 19.4828C5.44759 19.6045 4.95892 19.5132 4.90157 19.2052C4.84421 18.9578 5.01795 18.2076 5.29807 17.8571C5.57032 17.5163 6.23363 17.8494 6.24982 18.0554C6.26586 18.2606 6.1849 18.4915 6.1849 18.4915L5.93519 18.4445C5.93519 18.4445 5.95048 18.3703 5.97227 18.2535C5.99527 18.1297 5.67247 18.0058 5.57562 18.1345ZM10.4445 19.5868L10.3807 20.3537L10.1145 20.3431L10.2103 18.5218C10.8751 18.5356 11.2562 18.6276 11.2434 19.097C11.2038 19.7384 10.6844 19.5942 10.4445 19.5868ZM11.1072 16.7105H10.6619C10.6224 15.1333 10.9256 12.2483 10.0969 10.1252C9.46903 8.51579 7.88001 7.7918 7.52785 6.49168C6.97033 4.43382 7.9192 2.20721 11.1072 2.03575C13.8711 2.3195 14.7202 4.45319 14.2488 6.43977C13.4383 8.42605 12.6276 8.14063 11.6183 10.1192C10.794 12.2402 11.1078 15.0188 11.1072 16.7105ZM16.0467 19.6294L15.7378 19.736L15.6419 17.9041L16.004 17.8083L16.8987 19.3206L16.6537 19.4804L16.3554 19.0545L16.0146 19.1822L16.0467 19.6294ZM12.4432 16.7105H12.087C12.3806 12.6598 17.4708 13.5398 17.936 12.1342C18.7405 13.5277 18.4513 14.7027 17.6112 15.305C15.5237 16.8023 13.522 14.1969 12.4432 16.7105ZM14.3321 18.7562L14.4919 19.5977C14.5913 19.7915 14.6588 19.7556 14.8113 19.7361C14.9882 19.6081 14.9513 19.4834 14.9179 19.3207L15.2268 19.2782C15.3073 19.8878 15.0175 19.95 14.8007 19.9917C14.336 20.025 14.2449 19.9345 14.1191 19.3315C14.0459 18.8152 13.9194 18.2701 14.3534 18.1706C15.0659 18.0617 15.0238 18.3824 15.0883 18.6072L14.7794 18.6606C14.7301 18.4675 14.6591 18.3909 14.5025 18.4051C14.3597 18.4707 14.3012 18.5767 14.3321 18.7562ZM13.6824 19.6294C13.6972 19.8947 13.6072 20.0709 13.4374 20.1301L12.7131 20.2791L12.4255 18.5218C12.5741 18.4976 13.3028 18.2306 13.4799 18.7137C13.5672 19.0087 13.4767 19.1144 13.3733 19.2461C13.5693 19.3091 13.6355 19.4616 13.6824 19.6294ZM11.8225 10.8106C13.436 6.26755 17.1281 7.07039 17.947 9.11372C19.0689 13.2139 15.4565 12.0894 13.1426 13.7708C12.268 14.5314 11.8078 15.404 11.801 16.7268H11.4045C11.3807 14.0624 11.3376 12.1757 11.8225 10.8106Z" fill="#005FAF"/>
</g>
<defs>
<clipPath id="clip0_31_684">
<rect width="70" height="21.952" fill="white"/>
</clipPath>
</defs>
</svg>
