<svg width="170" height="32" viewBox="0 0 170 32" fill="none" xmlns="http://www.w3.org/2000/svg">
<path fill-rule="evenodd" clip-rule="evenodd" d="M16 32C24.8366 32 32 24.8366 32 16C32 7.16345 24.8366 0 16 0C7.16344 0 0 7.16345 0 16C0 24.8366 7.16344 32 16 32ZM20.9915 7.45348C21.2344 6.59044 20.3969 6.08011 19.632 6.62504L8.9545 14.2317C8.12498 14.8226 8.25546 16 9.1505 16H11.9622V15.9782H17.442L12.977 17.5537L11.0086 24.5466C10.7656 25.4096 11.6031 25.9199 12.368 25.375L23.0456 17.7684C23.8751 17.1774 23.7445 16 22.8496 16H18.5857L20.9915 7.45348Z" fill="#090917"/>
<path d="M48.32 23.14C47.2933 23.14 46.3733 22.9733 45.56 22.64C44.7467 22.3067 44.0933 21.8133 43.6 21.16C43.12 20.5067 42.8667 19.72 42.84 18.8H46.48C46.5333 19.32 46.7133 19.72 47.02 20C47.3267 20.2667 47.7267 20.4 48.22 20.4C48.7267 20.4 49.1267 20.2867 49.42 20.06C49.7133 19.82 49.86 19.4933 49.86 19.08C49.86 18.7333 49.74 18.4467 49.5 18.22C49.2733 17.9933 48.9867 17.8067 48.64 17.66C48.3067 17.5133 47.8267 17.3467 47.2 17.16C46.2933 16.88 45.5533 16.6 44.98 16.32C44.4067 16.04 43.9133 15.6267 43.5 15.08C43.0867 14.5333 42.88 13.82 42.88 12.94C42.88 11.6333 43.3533 10.6133 44.3 9.88C45.2467 9.13333 46.48 8.76 48 8.76C49.5467 8.76 50.7933 9.13333 51.74 9.88C52.6867 10.6133 53.1933 11.64 53.26 12.96H49.56C49.5333 12.5067 49.3667 12.1533 49.06 11.9C48.7533 11.6333 48.36 11.5 47.88 11.5C47.4667 11.5 47.1333 11.6133 46.88 11.84C46.6267 12.0533 46.5 12.3667 46.5 12.78C46.5 13.2333 46.7133 13.5867 47.14 13.84C47.5667 14.0933 48.2333 14.3667 49.14 14.66C50.0467 14.9667 50.78 15.26 51.34 15.54C51.9133 15.82 52.4067 16.2267 52.82 16.76C53.2333 17.2933 53.44 17.98 53.44 18.82C53.44 19.62 53.2333 20.3467 52.82 21C52.42 21.6533 51.8333 22.1733 51.06 22.56C50.2867 22.9467 49.3733 23.14 48.32 23.14ZM66.0647 17.24C66.0647 17.56 66.0447 17.8933 66.0047 18.24H58.2647C58.318 18.9333 58.538 19.4667 58.9247 19.84C59.3247 20.2 59.8114 20.38 60.3847 20.38C61.238 20.38 61.8314 20.02 62.1647 19.3H65.8047C65.618 20.0333 65.278 20.6933 64.7847 21.28C64.3047 21.8667 63.698 22.3267 62.9647 22.66C62.2314 22.9933 61.4114 23.16 60.5047 23.16C59.4114 23.16 58.438 22.9267 57.5847 22.46C56.7314 21.9933 56.0647 21.3267 55.5847 20.46C55.1047 19.5933 54.8647 18.58 54.8647 17.42C54.8647 16.26 55.098 15.2467 55.5647 14.38C56.0447 13.5133 56.7114 12.8467 57.5647 12.38C58.418 11.9133 59.398 11.68 60.5047 11.68C61.5847 11.68 62.5447 11.9067 63.3847 12.36C64.2247 12.8133 64.878 13.46 65.3447 14.3C65.8247 15.14 66.0647 16.12 66.0647 17.24ZM62.5647 16.34C62.5647 15.7533 62.3647 15.2867 61.9647 14.94C61.5647 14.5933 61.0647 14.42 60.4647 14.42C59.8914 14.42 59.4047 14.5867 59.0047 14.92C58.618 15.2533 58.378 15.7267 58.2847 16.34H62.5647ZM71.2889 13.42C71.6222 12.9 72.0822 12.48 72.6689 12.16C73.2556 11.84 73.9422 11.68 74.7289 11.68C75.6489 11.68 76.4822 11.9133 77.2289 12.38C77.9756 12.8467 78.5622 13.5133 78.9889 14.38C79.4289 15.2467 79.6489 16.2533 79.6489 17.4C79.6489 18.5467 79.4289 19.56 78.9889 20.44C78.5622 21.3067 77.9756 21.98 77.2289 22.46C76.4822 22.9267 75.6489 23.16 74.7289 23.16C73.9556 23.16 73.2689 23 72.6689 22.68C72.0822 22.36 71.6222 21.9467 71.2889 21.44V28.32H67.8689V11.84H71.2889V13.42ZM76.1689 17.4C76.1689 16.5467 75.9289 15.88 75.4489 15.4C74.9822 14.9067 74.4022 14.66 73.7089 14.66C73.0289 14.66 72.4489 14.9067 71.9689 15.4C71.5022 15.8933 71.2689 16.5667 71.2689 17.42C71.2689 18.2733 71.5022 18.9467 71.9689 19.44C72.4489 19.9333 73.0289 20.18 73.7089 20.18C74.3889 20.18 74.9689 19.9333 75.4489 19.44C75.9289 18.9333 76.1689 18.2533 76.1689 17.4ZM80.7631 17.4C80.7631 16.2533 80.9765 15.2467 81.4031 14.38C81.8431 13.5133 82.4365 12.8467 83.1831 12.38C83.9298 11.9133 84.7631 11.68 85.6831 11.68C86.4698 11.68 87.1565 11.84 87.7431 12.16C88.3431 12.48 88.8031 12.9 89.1231 13.42V11.84H92.5431V23H89.1231V21.42C88.7898 21.94 88.3231 22.36 87.7231 22.68C87.1365 23 86.4498 23.16 85.6631 23.16C84.7565 23.16 83.9298 22.9267 83.1831 22.46C82.4365 21.98 81.8431 21.3067 81.4031 20.44C80.9765 19.56 80.7631 18.5467 80.7631 17.4ZM89.1231 17.42C89.1231 16.5667 88.8831 15.8933 88.4031 15.4C87.9365 14.9067 87.3631 14.66 86.6831 14.66C86.0031 14.66 85.4231 14.9067 84.9431 15.4C84.4765 15.88 84.2431 16.5467 84.2431 17.4C84.2431 18.2533 84.4765 18.9333 84.9431 19.44C85.4231 19.9333 86.0031 20.18 86.6831 20.18C87.3631 20.18 87.9365 19.9333 88.4031 19.44C88.8831 18.9467 89.1231 18.2733 89.1231 17.42ZM101.237 20.1V23H99.4973C98.2573 23 97.2907 22.7 96.5973 22.1C95.904 21.4867 95.5573 20.4933 95.5573 19.12V14.68H94.1973V11.84H95.5573V9.12H98.9773V11.84H101.217V14.68H98.9773V19.16C98.9773 19.4933 99.0573 19.7333 99.2173 19.88C99.3773 20.0267 99.644 20.1 100.017 20.1H101.237ZM114.162 11.84V23H110.742V21.48C110.396 21.9733 109.922 22.3733 109.322 22.68C108.736 22.9733 108.082 23.12 107.362 23.12C106.509 23.12 105.756 22.9333 105.102 22.56C104.449 22.1733 103.942 21.62 103.582 20.9C103.222 20.18 103.042 19.3333 103.042 18.36V11.84H106.442V17.9C106.442 18.6467 106.636 19.2267 107.022 19.64C107.409 20.0533 107.929 20.26 108.582 20.26C109.249 20.26 109.776 20.0533 110.162 19.64C110.549 19.2267 110.742 18.6467 110.742 17.9V11.84H114.162ZM121.699 23.14C120.672 23.14 119.752 22.9733 118.939 22.64C118.126 22.3067 117.472 21.8133 116.979 21.16C116.499 20.5067 116.246 19.72 116.219 18.8H119.859C119.912 19.32 120.092 19.72 120.399 20C120.706 20.2667 121.106 20.4 121.599 20.4C122.106 20.4 122.506 20.2867 122.799 20.06C123.092 19.82 123.239 19.4933 123.239 19.08C123.239 18.7333 123.119 18.4467 122.879 18.22C122.652 17.9933 122.366 17.8067 122.019 17.66C121.686 17.5133 121.206 17.3467 120.579 17.16C119.672 16.88 118.932 16.6 118.359 16.32C117.786 16.04 117.292 15.6267 116.879 15.08C116.466 14.5333 116.259 13.82 116.259 12.94C116.259 11.6333 116.732 10.6133 117.679 9.88C118.626 9.13333 119.859 8.76 121.379 8.76C122.926 8.76 124.172 9.13333 125.119 9.88C126.066 10.6133 126.572 11.64 126.639 12.96H122.939C122.912 12.5067 122.746 12.1533 122.439 11.9C122.132 11.6333 121.739 11.5 121.259 11.5C120.846 11.5 120.512 11.6133 120.259 11.84C120.006 12.0533 119.879 12.3667 119.879 12.78C119.879 13.2333 120.092 13.5867 120.519 13.84C120.946 14.0933 121.612 14.3667 122.519 14.66C123.426 14.9667 124.159 15.26 124.719 15.54C125.292 15.82 125.786 16.2267 126.199 16.76C126.612 17.2933 126.819 17.98 126.819 18.82C126.819 19.62 126.612 20.3467 126.199 21C125.799 21.6533 125.212 22.1733 124.439 22.56C123.666 22.9467 122.752 23.14 121.699 23.14ZM135.144 20.1V23H133.404C132.164 23 131.197 22.7 130.504 22.1C129.81 21.4867 129.464 20.4933 129.464 19.12V14.68H128.104V11.84H129.464V9.12H132.884V11.84H135.124V14.68H132.884V19.16C132.884 19.4933 132.964 19.7333 133.124 19.88C133.284 20.0267 133.55 20.1 133.924 20.1H135.144ZM142.129 23.16C141.035 23.16 140.049 22.9267 139.169 22.46C138.302 21.9933 137.615 21.3267 137.109 20.46C136.615 19.5933 136.369 18.58 136.369 17.42C136.369 16.2733 136.622 15.2667 137.129 14.4C137.635 13.52 138.329 12.8467 139.209 12.38C140.089 11.9133 141.075 11.68 142.169 11.68C143.262 11.68 144.249 11.9133 145.129 12.38C146.009 12.8467 146.702 13.52 147.209 14.4C147.715 15.2667 147.969 16.2733 147.969 17.42C147.969 18.5667 147.709 19.58 147.189 20.46C146.682 21.3267 145.982 21.9933 145.089 22.46C144.209 22.9267 143.222 23.16 142.129 23.16ZM142.129 20.2C142.782 20.2 143.335 19.96 143.789 19.48C144.255 19 144.489 18.3133 144.489 17.42C144.489 16.5267 144.262 15.84 143.809 15.36C143.369 14.88 142.822 14.64 142.169 14.64C141.502 14.64 140.949 14.88 140.509 15.36C140.069 15.8267 139.849 16.5133 139.849 17.42C139.849 18.3133 140.062 19 140.489 19.48C140.929 19.96 141.475 20.2 142.129 20.2ZM153.203 13.7C153.603 13.0867 154.103 12.6067 154.703 12.26C155.303 11.9 155.97 11.72 156.703 11.72V15.34H155.763C154.91 15.34 154.27 15.5267 153.843 15.9C153.416 16.26 153.203 16.9 153.203 17.82V23H149.783V11.84H153.203V13.7ZM168.858 17.24C168.858 17.56 168.838 17.8933 168.798 18.24H161.058C161.111 18.9333 161.331 19.4667 161.718 19.84C162.118 20.2 162.604 20.38 163.178 20.38C164.031 20.38 164.624 20.02 164.958 19.3H168.598C168.411 20.0333 168.071 20.6933 167.578 21.28C167.098 21.8667 166.491 22.3267 165.758 22.66C165.024 22.9933 164.204 23.16 163.298 23.16C162.204 23.16 161.231 22.9267 160.378 22.46C159.524 21.9933 158.858 21.3267 158.378 20.46C157.898 19.5933 157.658 18.58 157.658 17.42C157.658 16.26 157.891 15.2467 158.358 14.38C158.838 13.5133 159.504 12.8467 160.358 12.38C161.211 11.9133 162.191 11.68 163.298 11.68C164.378 11.68 165.338 11.9067 166.178 12.36C167.018 12.8133 167.671 13.46 168.138 14.3C168.618 15.14 168.858 16.12 168.858 17.24ZM165.358 16.34C165.358 15.7533 165.158 15.2867 164.758 14.94C164.358 14.5933 163.858 14.42 163.258 14.42C162.684 14.42 162.198 14.5867 161.798 14.92C161.411 15.2533 161.171 15.7267 161.078 16.34H165.358Z" fill="#090917"/>
</svg>
